<svg width="482" height="482" viewBox="0 0 482 482" fill="none" xmlns="http://www.w3.org/2000/svg">
<path d="M388.923 433C379.63 433 371.374 431.133 364.155 427.398C356.974 423.619 351.33 418.422 347.221 411.808C343.112 405.194 341.038 397.59 341 388.996H373.256C373.294 391.651 373.986 394.035 375.33 396.15C376.712 398.22 378.594 399.84 380.974 401.01C383.355 402.179 386.082 402.764 389.153 402.764C392.11 402.764 394.721 402.157 396.987 400.942C399.253 399.682 401.019 397.95 402.286 395.745C403.553 393.541 404.168 391.021 404.129 388.186C404.168 385.397 403.438 382.922 401.941 380.762C400.481 378.603 398.427 376.915 395.777 375.701C393.128 374.486 390.075 373.878 386.619 373.878H374.638V347.962H386.619C389.806 347.962 392.609 347.355 395.029 346.14C397.486 344.925 399.387 343.238 400.731 341.078C402.113 338.918 402.785 336.444 402.747 333.654C402.785 330.954 402.229 328.57 401.077 326.5C399.925 324.43 398.312 322.811 396.238 321.641C394.203 320.471 391.841 319.886 389.153 319.886C386.235 319.886 383.624 320.493 381.32 321.708C379.054 322.923 377.269 324.61 375.963 326.77C374.658 328.93 373.986 331.404 373.947 334.194H343.304C343.342 325.735 345.32 318.266 349.237 311.787C353.192 305.308 358.606 300.224 365.48 296.534C372.354 292.845 380.245 291 389.153 291C397.87 291 405.569 292.732 412.251 296.197C418.971 299.661 424.213 304.431 427.976 310.505C431.777 316.534 433.659 323.44 433.621 331.224C433.697 338.963 431.432 345.307 426.824 350.257C422.254 355.206 416.456 358.131 409.429 359.03V360.11C418.952 361.325 426.113 364.745 430.913 370.369C435.713 375.948 438.075 382.967 437.998 391.426C438.037 399.525 435.963 406.701 431.777 412.955C427.63 419.209 421.851 424.114 414.44 427.668C407.067 431.223 398.561 433 388.923 433Z" fill="#993D0E"/>
<path d="M106.718 80.1701C106.042 70.7064 102.414 62.9327 95.835 56.8489C89.3005 50.7651 80.6706 47.7233 69.9451 47.7233C62.915 47.7233 56.6284 49.0752 51.0854 51.7791C45.5424 54.483 41.1711 58.2009 37.9714 62.9327C34.7718 67.6195 33.172 73.0048 33.172 79.0885C33.172 82.6036 33.7579 85.8483 34.9295 88.8226C36.1012 91.7969 37.8813 94.5233 40.2698 97.0019C42.7033 99.4354 45.7452 101.644 49.3954 103.626C53.0908 105.564 57.417 107.299 62.3742 108.831L78.0568 113.699C84.0505 115.546 89.2329 117.619 93.6043 119.917C97.9756 122.216 101.581 124.807 104.42 127.691C107.304 130.53 109.445 133.707 110.842 137.222C112.239 140.692 112.937 144.568 112.937 148.849C112.937 156.06 111.09 162.481 107.394 168.115C103.699 173.748 98.5389 178.164 91.9143 181.364C85.2898 184.563 77.6062 186.163 68.8635 186.163C60.4364 186.163 53.0682 184.699 46.7591 181.769C40.45 178.795 35.4478 174.717 31.7525 169.534C28.1022 164.307 26.0517 158.313 25.6011 151.553H29.9273C30.378 157.502 32.2482 162.752 35.5379 167.303C38.8277 171.855 43.2891 175.415 48.9222 177.984C54.6004 180.553 61.2475 181.837 68.8635 181.837C76.795 181.837 83.735 180.462 89.6836 177.713C95.6773 174.919 100.319 171.044 103.609 166.087C106.944 161.129 108.611 155.384 108.611 148.849C108.611 143.892 107.529 139.543 105.366 135.803C103.203 132.017 99.8007 128.683 95.159 125.798C90.5173 122.914 84.456 120.323 76.9752 118.025L61.2926 113.158C50.4319 109.733 42.2977 105.204 36.8899 99.5706C31.5271 93.9375 28.8458 87.1101 28.8458 79.0885C28.8458 72.2837 30.6258 66.1999 34.186 60.8372C37.7461 55.4294 42.6131 51.1707 48.7871 48.0612C55.006 44.9518 62.0587 43.397 69.9451 43.397C77.8765 43.397 84.8391 44.9743 90.8328 48.1288C96.8264 51.2834 101.581 55.6322 105.096 61.1752C108.611 66.7182 110.594 73.0498 111.044 80.1701H106.718ZM184.878 186.163C175.82 186.163 167.888 183.797 161.084 179.065C154.324 174.334 149.074 167.912 145.333 159.8C141.593 151.688 139.723 142.54 139.723 132.355C139.723 122.171 141.593 113.023 145.333 104.911C149.119 96.7991 154.256 90.3773 160.746 85.6455C167.235 80.9137 174.558 78.5478 182.715 78.5478C188.753 78.5478 194.342 79.8321 199.479 82.4008C204.661 84.9695 209.168 88.5297 212.999 93.0812C216.829 97.6328 219.803 102.883 221.921 108.831C224.085 114.735 225.166 121.044 225.166 127.759V132.085H141.886V127.759H220.84C220.84 119.422 219.127 111.873 215.702 105.114C212.277 98.3088 207.681 92.901 201.912 88.8902C196.144 84.8794 189.745 82.874 182.715 82.874C175.595 82.874 169.15 84.9921 163.382 89.2282C157.614 93.4643 152.994 99.2326 149.524 106.533C146.054 113.834 144.229 122.081 144.049 131.274V131.815C144.049 140.873 145.626 149.21 148.781 156.826C151.98 164.397 156.622 170.458 162.706 175.01C168.79 179.561 176.18 181.837 184.878 181.837C191.277 181.837 196.64 180.71 200.966 178.457C205.337 176.204 208.83 173.613 211.444 170.683C214.103 167.754 216.063 165.253 217.325 163.18L220.84 165.613C219.308 168.227 217.009 171.134 213.945 174.334C210.88 177.533 206.96 180.305 202.183 182.648C197.406 184.991 191.638 186.163 184.878 186.163ZM324.028 80.1701L286.984 184H281.035L243.992 80.1701H248.589L283.739 178.592H284.28L319.431 80.1701H324.028ZM387.316 186.163C378.258 186.163 370.326 183.797 363.521 179.065C356.762 174.334 351.512 167.912 347.771 159.8C344.031 151.688 342.161 142.54 342.161 132.355C342.161 122.171 344.031 113.023 347.771 104.911C351.557 96.7991 356.694 90.3773 363.183 85.6455C369.673 80.9137 376.996 78.5478 385.153 78.5478C391.191 78.5478 396.779 79.8321 401.917 82.4008C407.099 84.9695 411.606 88.5297 415.436 93.0812C419.267 97.6328 422.241 102.883 424.359 108.831C426.522 114.735 427.604 121.044 427.604 127.759V132.085H344.324V127.759H423.278C423.278 119.422 421.565 111.873 418.14 105.114C414.715 98.3088 410.119 92.901 404.35 88.8902C398.582 84.8794 392.183 82.874 385.153 82.874C378.032 82.874 371.588 84.9921 365.82 89.2282C360.051 93.4643 355.432 99.2326 351.962 106.533C348.492 113.834 346.667 122.081 346.487 131.274V131.815C346.487 140.873 348.064 149.21 351.219 156.826C354.418 164.397 359.06 170.458 365.144 175.01C371.228 179.561 378.618 181.837 387.316 181.837C393.715 181.837 399.078 180.71 403.404 178.457C407.775 176.204 411.268 173.613 413.882 170.683C416.54 167.754 418.501 165.253 419.763 163.18L423.278 165.613C421.746 168.227 419.447 171.134 416.383 174.334C413.318 177.533 409.398 180.305 404.621 182.648C399.844 184.991 394.076 186.163 387.316 186.163ZM33.7128 344.239V414H29.3865V310.17H33.7128V326.664H34.2536C36.6871 321.256 40.6753 316.93 46.2183 313.685C51.8064 310.44 58.1831 308.818 65.3485 308.818C72.2885 308.818 78.4173 310.328 83.735 313.347C89.0527 316.367 93.2212 320.535 96.2406 325.853C99.2599 331.17 100.77 337.299 100.77 344.239V414H96.4434V344.239C96.4434 335.046 93.5592 327.565 87.7909 321.797C82.0225 316.029 74.5417 313.144 65.3485 313.144C59.2196 313.144 53.7667 314.474 48.9898 317.133C44.258 319.791 40.5176 323.464 37.7686 328.151C35.0647 332.838 33.7128 338.201 33.7128 344.239ZM170.023 310.17V314.496H128.924V310.17H170.023ZM144.066 285.294H148.392V392.098C148.392 396.154 149.293 399.647 151.096 402.576C152.899 405.46 155.287 407.691 158.261 409.268C161.236 410.8 164.435 411.566 167.86 411.566C169.167 411.566 170.361 411.454 171.443 411.228C172.57 411.003 173.719 410.665 174.89 410.215L176.242 414.27C174.89 414.766 173.561 415.149 172.254 415.42C170.947 415.735 169.483 415.893 167.86 415.893C163.624 415.893 159.681 414.924 156.031 412.986C152.425 411.048 149.519 408.299 147.311 404.739C145.147 401.179 144.066 396.965 144.066 392.098V285.294ZM208.486 452.936C206.729 452.936 204.859 452.688 202.876 452.193C200.893 451.742 198.887 451.089 196.86 450.232L198.482 446.447C202.943 448.34 206.999 449.016 210.649 448.475C214.345 447.979 217.59 446.289 220.384 443.405C223.223 440.521 225.566 436.487 227.414 431.305L232.957 415.893L195.102 310.17H199.699L234.849 408.592H235.39L270.541 310.17H275.138L231.47 432.927C229.937 437.254 228.022 440.904 225.724 443.878C223.425 446.852 220.812 449.106 217.882 450.638C214.998 452.17 211.866 452.936 208.486 452.936Z" fill="white"/>
<path d="M320.864 359.469V370.654H295.054V359.469H320.864Z" fill="white"/>
<rect x="5" y="5" width="472" height="472" stroke="#993D0E" stroke-width="10"/>
</svg>
